<?xml version="1.0" encoding="UTF-8" standalone="no"?>
<!-- Created with Inkscape (http://www.inkscape.org/) -->

<svg
   xmlns:dc="http://purl.org/dc/elements/1.1/"
   xmlns:cc="http://creativecommons.org/ns#"
   xmlns:rdf="http://www.w3.org/1999/02/22-rdf-syntax-ns#"
   xmlns:svg="http://www.w3.org/2000/svg"
   xmlns="http://www.w3.org/2000/svg"
   xmlns:sodipodi="http://sodipodi.sourceforge.net/DTD/sodipodi-0.dtd"
   xmlns:inkscape="http://www.inkscape.org/namespaces/inkscape"
   version="1.1"
   id="svg18944"
   xml:space="preserve"
   width="800"
   height="800"
   viewBox="0 0 800 800"
   sodipodi:docname="earth-crack-publicdomainvectors.org.svg"
   inkscape:version="0.92.4 (5da689c313, 2019-01-14)"><metadata
     id="metadata18950"><rdf:RDF><cc:Work
         rdf:about=""><dc:format>image/svg+xml</dc:format><dc:type
           rdf:resource="http://purl.org/dc/dcmitype/StillImage" /><dc:title></dc:title></cc:Work></rdf:RDF></metadata><defs
     id="defs18948"><clipPath
       clipPathUnits="userSpaceOnUse"
       id="clipPath18960"><path
         d="M 0,600 H 600 V 0 H 0 Z"
         id="path18958"
         inkscape:connector-curvature="0" /></clipPath></defs><sodipodi:namedview
     pagecolor="#ffffff"
     bordercolor="#666666"
     borderopacity="1"
     objecttolerance="10"
     gridtolerance="10"
     guidetolerance="10"
     inkscape:pageopacity="0"
     inkscape:pageshadow="2"
     inkscape:window-width="797"
     inkscape:window-height="480"
     id="namedview18946"
     showgrid="false"
     inkscape:zoom="0.295"
     inkscape:cx="400"
     inkscape:cy="400"
     inkscape:window-x="0"
     inkscape:window-y="0"
     inkscape:window-maximized="0"
     inkscape:current-layer="g18952" /><g
     id="g18952"
     inkscape:groupmode="layer"
     inkscape:label="earth-crack-publicdomainvectors.org"
     transform="matrix(1.3333333,0,0,-1.3333333,0,800)"><g
       id="g18954"><g
         id="g18956"
         clip-path="url(#clipPath18960)"><path
           d="m -0.278,-2.091 h 602.916 v 602.92 H -0.278 Z"
           style="fill:#e6e6e6;fill-opacity:1;fill-rule:evenodd;stroke:none"
           id="path18962"
           inkscape:connector-curvature="0" /><path
           d="m 385.074,338.664 -83,14.568 11.379,15.528 -25.659,13.993 22.59,15.79 38.098,-0.455 40.163,15.335 -43.732,-13.034 -34.026,1.389 -13.275,19.697 5.076,-20.32 -31.852,-16.868 -41.351,9.216 19.933,11.87 -42.838,3.834 29.674,-4.985 -21.754,-12.795 57.118,-13.13 17.96,-11.646 -18.742,-15.718 -54.44,-18.019 -5.355,21.086 -46.409,8.434 33.021,-11.884 0.893,-25.303 -15.172,-15.335 -56.226,-3.45 -9.817,22.62 -51.763,4.982 41.388,-8.194 3.235,-23.626 -34.806,-16.101 -55.334,0.766 57.342,-7.955 55.11,19.839 53.549,2.301 21.419,-17.636 -48.193,-7.668 10.708,-20.319 -37.483,-13.416 49.087,10.733 -7.14,19.168 42.839,4.601 48.193,-13.801 -24.989,-14.951 27.666,-16.87 -41.946,-8.817 -4.462,-27.221 12.717,24.92 47.078,5.75 22.8,-12.955 10.263,-28.273 -66.083,-7.075 74.967,3.832 -1.786,29.904 39.272,5.368 36.589,-15.338 -33.022,20.321 -43.731,-3.067 -45.515,27.986 26.774,14.186 64.258,5.368 26.774,-3.835 -2.007,-14.664 24.319,-12.938 -16.064,13.799 5.802,17.158 -25.438,5.846 24.099,18.019 38.376,1.533 22.312,-18.786 39.267,4.985 3.572,-17.636 18.74,-18.403 -11.788,19.536 0.187,18.037 37.26,7.955 30.568,-10.64 -30.119,14.377 -44.848,-7.092 -33.915,-2.301 -14.28,13.803 20.528,9.199 37.482,-4.215 -38.149,8.002 -34.141,-10.686 -43.73,-0.384 -6.247,32.971 57.118,9.2 32.131,-6.133 41.943,0.766 -41.608,1.773 -25.663,8.531 12.161,17.013 49.757,1.053 -50.871,1.439 -6.919,14.951 -28.112,-1.63 24.32,-0.574 2.676,-13.515 -14.277,-16.773 z"
           style="fill:#000000;fill-opacity:1;fill-rule:evenodd;stroke:none"
           id="path18964"
           inkscape:connector-curvature="0" /><path
           d="m 198.546,325.247 -15.172,-15.335 v -8.933 l 2.678,0.115 12.494,-10.287 z"
           style="fill:#1a1a1a;fill-opacity:1;fill-rule:evenodd;stroke:none"
           id="path18966"
           inkscape:connector-curvature="0" /><path
           d="m 275.3,224.804 6.246,0.763 22.8,-12.955 10.263,-28.273 -66.083,-7.075 74.967,3.832 -1.786,29.904 39.272,5.368 36.589,-15.338 -33.022,20.321 -43.731,-3.067 -45.515,27.986 z"
           style="fill:#333333;fill-opacity:1;fill-rule:evenodd;stroke:none"
           id="path18968"
           inkscape:connector-curvature="0" /><path
           d="m 385.116,275.227 16.25,12.147 -0.227,9.119 -6.247,32.971 52.656,8.481 v 7.62 l -62.432,-6.897 z"
           style="fill:#1a1a1a;fill-opacity:1;fill-rule:evenodd;stroke:none"
           id="path18970"
           inkscape:connector-curvature="0" /><path
           d="m 313.453,351.236 -11.379,1.996 11.379,15.528 -25.659,13.993 v -14.945 l 1.784,-1.157 -1.784,-1.497 V 252.891 l 14.28,7.565 11.379,0.951 z"
           style="fill:#333333;fill-opacity:1;fill-rule:evenodd;stroke:none"
           id="path18972"
           inkscape:connector-curvature="0" /><path
           d="M 289.578,366.651 270.836,350.933 V 224.261 l 4.464,0.543 v 21.466 l 14.278,7.566 z"
           style="fill:#1a1a1a;fill-opacity:1;fill-rule:evenodd;stroke:none"
           id="path18974"
           inkscape:connector-curvature="0" /><path
           d="m 270.836,350.933 -54.44,-18.019 v -56.453 l 0.893,0.096 48.193,-13.801 -24.989,-14.951 27.666,-16.87 v -7 l 2.677,0.326 z"
           style="fill:#333333;fill-opacity:1;fill-rule:evenodd;stroke:none"
           id="path18976"
           inkscape:connector-curvature="0" /><path
           d="m 385.074,338.664 -83,14.568 v -92.776 l 64.258,5.368 18.791,-2.691 -0.002,6.815 -5.403,1.242 5.398,4.037 z"
           style="fill:#4d4d4d;fill-opacity:1;fill-rule:evenodd;stroke:none"
           id="path18978"
           inkscape:connector-curvature="0" /><path
           d="m 379.718,263.906 13.388,-1.917 -2.007,-14.664 24.319,-12.938 -16.064,13.799 5.802,17.158 -25.438,5.846 z"
           style="fill:#333333;fill-opacity:1;fill-rule:evenodd;stroke:none"
           id="path18980"
           inkscape:connector-curvature="0" /></g></g></g></svg>